<svg height="512pt" viewBox="-4 0 512 512" width="512pt" xmlns="http://www.w3.org/2000/svg"><path d="m357.746094 140.300781v282.640625l-175.125 40.78125-175.121094-40.78125v-282.640625l175.121094-40.78125zm0 0" fill="#ebebeb"/><path d="m47.5 422.941406v-282.640625l155.121094-36.121093-20-4.660157-175.121094 40.78125v282.640625l175.121094 40.78125 20-4.660156zm0 0" fill="#d5d4da"/><path d="m357.746094 140.300781h-350.246094c0-45.046875 36.511719-81.558593 81.558594-81.558593h187.117187c45.046875 0 81.570313 36.511718 81.570313 81.558593zm0 0" fill="#7292df"/><path d="m129.058594 58.742188h-40c-45.046875 0-81.558594 36.511718-81.558594 81.558593h40c0-45.046875 36.511719-81.558593 81.558594-81.558593zm0 0" fill="#4677d4"/><path d="m357.746094 422.941406c0 45.035156-36.523438 81.558594-81.570313 81.558594h-187.117187c-45.046875 0-81.558594-36.523438-81.558594-81.558594zm0 0" fill="#7292df"/><path d="m47.5 422.941406h-40c0 45.035156 36.511719 81.558594 81.558594 81.558594h40c-45.046875 0-81.558594-36.523438-81.558594-81.558594zm0 0" fill="#4677d4"/><path d="m428.652344 7.5h-89.40625c-37.792969 0-68.433594 30.640625-68.433594 68.433594v59.90625c0 12.457031 3.34375 24.121094 9.160156 34.183594l-.019531.003906-10.65625 34.121094c-2.921875 9.355468 6.929687 17.566406 15.601563 13.003906l31.761718-16.699219v-.011719c7.074219 2.472656 14.667969 3.832032 22.585938 3.832032h89.40625c37.796875 0 68.433594-30.640626 68.433594-68.433594v-59.90625c.003906-37.792969-30.636719-68.433594-68.433594-68.433594zm0 0" fill="#fd5f7e"/><path d="m406.386719 147.585938c0 12.394531-10.042969 22.4375-22.4375 22.4375-12.390625 0-22.4375-10.042969-22.4375-22.4375 0-12.390626 10.046875-22.4375 22.4375-22.4375 12.394531 0 22.4375 10.046874 22.4375 22.4375zm0 0" fill="#f5e277"/><path d="m442.496094 130.460938c-4.664063-11.550782-13.664063-19.746094-13.664063-19.746094l-44.882812-20.433594-44.878907 20.433594s-9 8.195312-13.664062 19.746094c-2.535156 6.277343 2.023438 13.140624 8.792969 13.140624h99.503906c6.769531 0 11.328125-6.863281 8.792969-13.140624zm0 0" fill="#f0bc63"/><path d="m383.949219 41.746094c-24.785157 0-44.878907 20.09375-44.878907 44.882812v24.085938h89.761719v-24.085938c0-24.789062-20.09375-44.882812-44.882812-44.882812zm0 0" fill="#f5e277"/><path d="m94.433594 261.878906c-4.144532 0-7.5 3.355469-7.5 7.5v15.960938c0 4.140625 3.355468 7.5 7.5 7.5 4.140625 0 7.5-3.359375 7.5-7.5v-15.960938c0-4.144531-3.359375-7.5-7.5-7.5zm0 0"/><path d="m270.8125 261.878906c-4.140625 0-7.5 3.355469-7.5 7.5v15.960938c0 4.140625 3.359375 7.5 7.5 7.5s7.5-3.359375 7.5-7.5v-15.960938c0-4.144531-3.359375-7.5-7.5-7.5zm0 0"/><path d="m209.324219 278.582031c-3.117188-2.726562-7.855469-2.410156-10.582031.710938-3.925782 4.488281-9.800782 7.066406-16.121094 7.066406-6.316406 0-12.195313-2.578125-16.117188-7.066406-2.730468-3.117188-7.464844-3.4375-10.585937-.710938-3.117188 2.726563-3.4375 7.464844-.710938 10.582031 6.773438 7.75 16.765625 12.195313 27.414063 12.195313 10.648437 0 20.640625-4.445313 27.414062-12.195313 2.726563-3.117187 2.410156-7.855468-.710937-10.582031zm0 0"/><path d="m383.949219 34.246094c-28.882813 0-52.378907 23.5-52.378907 52.382812v21.003906c-3.367187 3.585938-9.40625 10.820313-13.121093 20.019532-4.445313 11.011718 3.871093 23.449218 15.75 23.449218h20.027343c1.746094 14.855469 14.40625 26.421876 29.722657 26.421876 15.320312 0 27.980469-11.566407 29.726562-26.421876h20.023438c11.878906 0 20.191406-12.457031 15.75-23.449218-3.714844-9.199219-9.753907-16.433594-13.117188-20.019532v-21.003906c0-28.882812-23.496093-52.382812-52.382812-52.382812zm-37.378907 52.382812c0-20.613281 16.769532-37.382812 37.378907-37.382812 20.613281 0 37.382812 16.769531 37.382812 37.382812v16.585938h-74.765625v-16.585938zm37.378907 75.894532c-7.027344 0-12.9375-4.875-14.519531-11.421876h29.042968c-1.585937 6.546876-7.496094 11.421876-14.523437 11.421876zm51.398437-27.296876c-.269531.398438-.773437.875-1.648437.875 0 0-99.429688 0-99.5 0-1.433594 0-2.375-1.507812-1.839844-2.832031 2.71875-6.734375 7.277344-12.265625 9.847656-15.054687h83.484375c2.578125 2.792968 7.132813 8.324218 9.851563 15.054687.367187.910157.035156 1.617188-.195313 1.957031zm0 0"/><path d="m339.246094 0c-33.226563 0-61.515625 21.460938-71.789063 51.242188h-178.398437c-49.109375 0-89.058594 39.949218-89.058594 89.058593v282.640625c0 49.109375 39.949219 89.058594 89.058594 89.058594h187.117187c49.113281 0 89.070313-39.949219 89.070313-89.058594v-211.167968h63.40625c41.871094 0 75.9375-34.066407 75.9375-75.933594v-59.90625c0-41.871094-34.066406-75.933594-75.9375-75.933594zm-63.070313 497h-187.117187c-38.304688 0-69.910156-29.234375-73.679688-66.558594h241.855469c4.140625 0 7.5-3.355468 7.5-7.5 0-4.140625-3.359375-7.5-7.5-7.5h-242.234375v-267.640625h67.234375c4.023437 0 7.5-3.472656 7.5-7.5 0-4.035156-3.460937-7.5-7.5-7.5h-66.855469c3.769532-37.324219 35.375-66.558593 73.679688-66.558593h174.871094c-.554688.015624-.617188 9.054687-.617188 9.691406v56.867187h-151.078125c-4.054687 0-7.5 3.445313-7.5 7.5 0 4.019531 3.488281 7.5 7.5 7.5h152.015625c1.265625 8.007813 3.851562 15.820313 7.597656 23.007813 0 0-9.710937 31.09375-9.714844 31.105468-2.066406 6.777344-.308593 13.894532 4.816407 18.820313 5.628906 5.402344 14.53125 6.683594 21.441406 3.054687l28.976563-15.234374c7.085937 2.132812 14.480468 3.21875 21.878906 3.21875h10.996094v203.667968h-63.007813c-4.140625 0-7.5 3.359375-7.5 7.5 0 4.144532 3.359375 7.5 7.5 7.5h62.632813c-3.773438 37.324219-35.382813 66.558594-73.691407 66.558594zm213.414063-421.066406v59.90625c0 33.597656-27.335938 60.933594-60.9375 60.933594h-89.40625c-6.867188 0-13.632813-1.148438-20.109375-3.414063-2.03125-.710937-4.398438-.480469-6.253907.605469 0 0-31.453124 16.539062-31.476562 16.550781-2.722656 1.367187-5.851562-1.207031-4.949219-4.132813l10.503907-33.636718c.820312-2.105469.636718-4.519532-.492188-6.476563-5.320312-9.203125-8.152344-19.804687-8.152344-30.429687 0 0 0-59.902344 0-59.90625 0-33.167969 27.765625-60.933594 60.933594-60.933594h89.40625c33.597656 0 60.933594 27.335938 60.933594 60.933594zm0 0"/></svg>