<svg height="512pt" viewBox="-2 0 512 512" width="512pt" xmlns="http://www.w3.org/2000/svg"><path d="m105.078125 430.769531h-54.316406c-21.617188 0-39.203125-17.585937-39.203125-39.203125 0-21.613281 17.585937-39.199218 39.203125-39.199218h54.316406c6.882813 0 12.457031 5.578124 12.457031 12.457031 0 6.878906-5.574218 12.457031-12.457031 12.457031h-54.316406c-7.878907 0-14.285157 6.410156-14.285157 14.285156 0 7.878906 6.40625 14.285156 14.285157 14.285156h54.316406c6.882813 0 12.457031 5.578126 12.457031 12.457032.003906 6.882812-5.574218 12.460937-12.457031 12.460937zm0 0" fill="#ebebeb"/><path d="m204 328.089844h-112.738281c-11.011719 0-19.933594 8.921875-19.933594 19.933594v53.445312c0 32.734375 26.535156 59.269531 59.265625 59.269531l17.035156 13.554688 17.035156-13.554688c32.734376 0 59.269532-26.535156 59.269532-59.269531v-53.445312c0-11.011719-8.925782-19.933594-19.933594-19.933594zm0 0" fill="#ebebeb"/><path d="m160.59375 460.738281c-32.730469 0-59.265625-26.535156-59.265625-59.269531v-53.445312c0-11.011719 8.921875-19.933594 19.933594-19.933594h-30c-11.011719 0-19.933594 8.921875-19.933594 19.933594v53.445312c0 32.734375 26.535156 59.269531 59.265625 59.269531l17.035156 13.554688 15-11.9375zm0 0" fill="#d5d4da"/><path d="m89.28125 232.753906v44.355469c0 12.585937 10.203125 22.789063 22.789062 22.789063h51.183594c12.585938 0 22.789063-10.203126 22.789063-22.789063v-44.355469zm0 0" fill="#334151"/><path d="m119.28125 277.109375v-44.355469h-30v44.355469c0 12.585937 10.203125 22.789063 22.789062 22.789063h30c-12.585937 0-22.789062-10.203126-22.789062-22.789063zm0 0" fill="#293441"/><path d="m255.488281 252.6875v208.050781h-233.738281c-7.871094 0-14.25 6.378907-14.25 14.25v15.261719c0 7.871094 6.378906 14.25 14.25 14.25h339.28125v-251.8125l-52.769531-22.082031zm0 0" fill="#334151"/><path d="m264.664062 156.316406h-181.539062c-41.765625 0-75.625 33.859375-75.625 75.628906 0 11.453126 9.285156 20.742188 20.742188 20.742188h332.789062c0-53.222656-43.144531-96.371094-96.367188-96.371094zm0 0" fill="#ff889e"/><path d="m37.5 231.945312c0-41.769531 33.859375-75.628906 75.625-75.628906h-30c-41.765625 0-75.625 33.859375-75.625 75.625 0 11.457032 9.285156 20.742188 20.742188 20.742188h30c-11.457032.003906-20.742188-9.285156-20.742188-20.738282zm0 0" fill="#fd5f7e"/><path d="m327.335938 318.976562c0 10.535157-8.539063 19.078126-19.078126 19.078126-10.535156 0-19.078124-8.542969-19.078124-19.078126 0-10.535156 8.542968-19.078124 19.078124-19.078124 10.539063 0 19.078126 8.542968 19.078126 19.078124zm0 0" fill="#ff889e"/><path d="m327.335938 398.339844c0 10.539062-8.539063 19.078125-19.078126 19.078125-10.535156 0-19.078124-8.539063-19.078124-19.078125 0-10.535156 8.542968-19.078125 19.078124-19.078125 10.539063 0 19.078126 8.542969 19.078126 19.078125zm0 0" fill="#ebebeb"/><path d="m392.691406 138.28125c0 12.691406-10.289062 22.980469-22.976562 22.980469-12.691406 0-22.980469-10.289063-22.980469-22.980469s10.289063-22.976562 22.980469-22.976562c12.6875 0 22.976562 10.285156 22.976562 22.976562zm0 0" fill="#59c2e7"/><path d="m477.722656 145.949219c-2.382812-2.382813-3.871094-5.664063-3.90625-9.296875-.273437-27.257813-11.042968-52.882813-30.316406-72.15625-19.273438-19.273438-44.894531-30.042969-72.148438-30.316406-7.367187-.074219-13.277343-6.109376-13.203124-13.476563.074218-7.363281 6.105468-13.277344 13.472656-13.203125 34.277344.347656 66.503906 13.890625 90.742187 38.128906 24.246094 24.242188 37.785157 56.472656 38.128907 90.753906.074218 7.367188-5.835938 13.398438-13.203126 13.472657-3.730468.039062-7.121093-1.460938-9.566406-3.90625zm0 0" fill="#59c2e7"/><path d="m424.949219 154.703125c-2.382813-2.378906-3.871094-5.660156-3.90625-9.296875-.15625-15.546875-6.296875-30.164062-17.292969-41.160156s-25.613281-17.136719-41.15625-17.292969c-7.367188-.074219-13.28125-6.109375-13.207031-13.476563.078125-7.367187 6.109375-13.277343 13.476562-13.203124 22.570313.230468 43.789063 9.144531 59.75 25.109374 15.964844 15.960938 24.878907 37.183594 25.109375 59.757813.074219 7.367187-5.839844 13.398437-13.207031 13.472656-3.730469.035157-7.121094-1.460937-9.566406-3.910156zm0 0" fill="#00a2d7"/><path d="m80.558594 197.980469v12.402343c0 4.140626 3.359375 7.5 7.5 7.5 4.144531 0 7.5-3.359374 7.5-7.5v-12.402343c0-4.144531-3.355469-7.5-7.5-7.5-4.140625 0-7.5 3.355469-7.5 7.5zm0 0"/><path d="m232.640625 210.382812v-12.402343c0-4.144531-3.359375-7.5-7.5-7.5-4.144531 0-7.5 3.355469-7.5 7.5v12.402343c0 4.140626 3.355469 7.5 7.5 7.5 4.140625 0 7.5-3.359374 7.5-7.5zm0 0"/><path d="m134.035156 214.457031c5.585938 6.386719 13.808594 10.046875 22.566406 10.046875 8.753907 0 16.980469-3.660156 22.5625-10.046875 2.726563-3.117187 2.40625-7.855469-.710937-10.582031s-7.855469-2.410156-10.585937.710938c-2.730469 3.125-6.839844 4.917968-11.269532 4.917968-4.425781 0-8.535156-1.792968-11.269531-4.917968-2.726563-3.117188-7.464844-3.4375-10.582031-.710938-3.117188 2.726562-3.4375 7.464844-.710938 10.582031zm0 0"/><path d="m308.257812 345.554688c14.65625 0 26.578126-11.921876 26.578126-26.578126 0-14.652343-11.921876-26.578124-26.578126-26.578124-14.652343 0-26.578124 11.925781-26.578124 26.578124 0 14.65625 11.925781 26.578126 26.578124 26.578126zm0-38.15625c6.386719 0 11.578126 5.195312 11.578126 11.578124 0 6.382813-5.191407 11.578126-11.578126 11.578126-6.382812 0-11.578124-5.195313-11.578124-11.578126 0-6.382812 5.195312-11.578124 11.578124-11.578124zm0 0"/><path d="m308.257812 424.917969c14.65625 0 26.578126-11.921875 26.578126-26.578125 0-14.652344-11.921876-26.578125-26.578126-26.578125-14.652343 0-26.578124 11.925781-26.578124 26.578125 0 14.65625 11.925781 26.578125 26.578124 26.578125zm0-38.15625c6.386719 0 11.578126 5.195312 11.578126 11.578125 0 6.386718-5.191407 11.578125-11.578126 11.578125-6.382812 0-11.578124-5.191407-11.578124-11.578125 0-6.382813 5.195312-11.578125 11.578124-11.578125zm0 0"/><path d="m369.710938 107.929688c-7.84375 0-15.683594 2.933593-21.550782 8.800781-11.882812 11.882812-11.882812 31.21875 0 43.101562 11.746094 11.746094 31.371094 11.734375 43.101563 0 5.757812-5.753906 8.929687-13.410156 8.929687-21.550781s-3.171875-15.792969-8.929687-21.550781c-5.867188-5.871094-13.710938-8.804688-21.550781-8.800781zm10.945312 41.296874c-5.96875 5.96875-15.925781 5.960938-21.886719 0-6.035156-6.035156-6.035156-15.855468 0-21.886718 5.96875-5.972656 15.925781-5.964844 21.886719 0 5.972656 5.96875 5.964844 15.921875 0 21.886718zm0 0"/><path d="m371.699219 0h-.214844c-11.375 0-20.71875 9.253906-20.835937 20.628906-.113282 11.363282 9.269531 20.933594 20.628906 21.050782 25.277344.253906 49.042968 10.242187 66.917968 28.117187 17.878907 17.878906 27.867188 41.648437 28.121094 66.929687.113282 11.277344 9.570313 20.628907 20.835938 20.628907h.210937c11.367188-.050781 20.746094-9.738281 20.628907-21.046875-.363282-36.257813-14.683594-70.34375-40.324219-95.984375-25.636719-25.636719-59.71875-39.957031-95.96875-40.324219zm119.609375 140.589844c-1.050782 1.070312-2.503906 1.75-4.09375 1.765625h-.0625c-3.15625 0-5.804688-2.636719-5.835938-5.78125-.292968-29.230469-11.839844-56.710938-32.511718-77.382813-20.671876-20.667968-48.148438-32.214844-77.375-32.511718-3.195313-.03125-5.8125-2.707032-5.78125-5.898438.03125-3.1875 2.652343-5.78125 5.898437-5.78125 32.300781.328125 62.671875 13.089844 85.515625 35.933594s35.605469 53.21875 35.933594 85.523437c.015625 1.59375-.636719 3.058594-1.6875 4.132813zm0 0"/><path d="m362.9375 52.773438h-.214844c-11.375 0-20.71875 9.253906-20.835937 20.628906-.117188 11.488281 9.136719 20.933594 20.628906 21.046875 13.570313.140625 26.332031 5.5 35.929687 15.101562 9.601563 9.597657 14.960938 22.359375 15.097657 35.933594.113281 11.195313 9.535156 20.628906 20.835937 20.628906h.210938c11.492187-.117187 20.746094-9.558593 20.628906-21.050781-.246094-24.546875-9.941406-47.625-27.304688-64.984375-17.355468-17.359375-40.433593-27.054687-64.976562-27.304687zm71.503906 98.339843h-.0625c-3.144531 0-5.804687-2.644531-5.835937-5.78125-.175781-17.523437-7.097657-33.996093-19.492188-46.390625-12.390625-12.390625-28.863281-19.3125-46.382812-19.488281-3.21875-.035156-5.8125-2.679687-5.78125-5.898437.03125-3.1875 2.648437-5.78125 5.898437-5.78125 20.59375.207031 39.957032 8.34375 54.523438 22.910156 14.570312 14.570312 22.707031 33.933594 22.914062 54.53125.03125 3.21875-2.5625 5.863281-5.78125 5.898437zm0 0"/><path d="m264.664062 148.816406h-116.8125c-4.140624 0-7.5 3.359375-7.5 7.5 0 4.144532 3.359376 7.5 7.5 7.5h116.8125c46.476563 0 84.734376 35.863282 88.554688 81.367188h-324.976562c-7.304688 0-13.242188-5.9375-13.242188-13.242188 0-37.5625 30.558594-68.125 68.125-68.125h34.726562c4.140626 0 7.5-3.355468 7.5-7.5 0-4.140625-3.359374-7.5-7.5-7.5h-34.726562c-45.835938 0-83.125 37.292969-83.125 83.128906 0 15.570313 12.667969 28.238282 28.242188 28.238282h53.542968v16.925781c0 16.703125 13.585938 30.289063 30.289063 30.289063h51.183593c16.699219 0 30.289063-13.585938 30.289063-30.289063v-16.925781h54.441406v193.054687h-41.214843c15.035156-12.253906 24.660156-30.90625 24.660156-51.769531v-53.449219c0-15.125-12.304688-27.429687-27.433594-27.429687h-112.738281c-14.0625 0-25.675781 10.632812-27.246094 24.273437h-13.253906c-25.75 0-46.703125 20.953125-46.703125 46.703125s20.953125 46.703125 46.703125 46.703125h24.160156c3.746094 5.648438 8.324219 10.695313 13.5625 14.964844h-66.734375c-11.992188 0-21.75 9.757813-21.75 21.753906v15.257813c0 11.996094 9.757812 21.753906 21.75 21.753906h221.4375c4.140625 0 7.5-3.359375 7.5-7.5 0-4.144531-3.359375-7.5-7.5-7.5h-221.4375c-3.722656 0-6.75-3.027344-6.75-6.753906v-15.257813c0-3.722656 3.027344-6.753906 6.75-6.753906h233.738281c4.140625 0 7.5-3.355469 7.5-7.5v-200.546875h90.542969v236.8125h-80.34375c-4.144531 0-7.5 3.359375-7.5 7.5s3.355469 7.5 7.5 7.5h87.84375c4.144531 0 7.5-3.359375 7.5-7.5v-251.8125c0-57.273438-46.59375-103.871094-103.867188-103.871094zm-213.902343 249.539063c-3.742188 0-6.785157-3.046875-6.785157-6.785157 0-3.742187 3.042969-6.785156 6.785157-6.785156h13.066406v13.570313zm16.714843 24.914062h-16.714843c-17.480469 0-31.703125-14.21875-31.703125-31.703125 0-17.480468 14.222656-31.699218 31.703125-31.699218h13.066406v9.914062h-13.066406c-12.011719 0-21.785157 9.773438-21.785157 21.785156 0 12.011719 9.773438 21.785156 21.785157 21.785156h14.136719c.03125.179688.070312.359376.105468.539063.601563 3.179687 1.417969 6.320313 2.472656 9.378906zm17.859376 3.292969c-4.191407-7.527344-6.507813-16.378906-6.507813-25.09375v-53.445312c0-6.855469 5.574219-12.433594 12.433594-12.433594h112.738281c6.855469 0 12.433594 5.578125 12.433594 12.433594v53.445312c0 28.539062-23.210938 51.757812-51.746094 51.769531h-34.109375c-19.4375-.007812-36.398437-10.789062-45.242187-26.675781zm93.207031-149.453125c0 8.429687-6.859375 15.289063-15.289063 15.289063h-51.183594c-8.429687 0-15.289062-6.859376-15.289062-15.289063v-16.925781h81.761719zm0 0"/></svg>