<svg height="512pt" viewBox="-44 0 512 512" width="512pt" 
    xmlns="http://www.w3.org/2000/svg">
    <path d="m38.070312 455.816406v31.316406c0 9.589844 7.777344 17.367188 17.367188 17.367188h31.75c9.589844 0 17.367188-7.773438 17.367188-17.367188v-31.316406zm0 0" fill="#293441"/>
    <path d="m386.652344 455.816406v31.316406c0 9.589844-7.773438 17.367188-17.367188 17.367188h-31.75c-9.589844 0-17.363281-7.773438-17.363281-17.367188v-31.316406zm0 0" fill="#293441"/>
    <path d="m212.363281 7.5 21.453125 146.996094-21.453125 126.09375-102.433593 20.898437-102.429688-20.898437v-242.527344c0-16.878906 13.683594-30.5625 30.570312-30.5625zm0 0" fill="#a6b6c4"/>
    <g fill="#7a8fa4">
        <path d="m37.5 280.589844v-242.527344c0-16.878906 13.683594-30.5625 30.570312-30.5625h-30c-16.886718 0-30.570312 13.683594-30.570312 30.5625v242.527344l102.429688 20.898437 15-3.058593zm0 0"/>
        <path d="m154.25 47.304688c-11.03125 0-19.972656 8.941406-19.972656 19.972656v160.835937c0 11.03125 8.941406 19.972657 19.972656 19.972657s19.972656-8.941407 19.972656-19.972657v-160.835937c0-11.03125-8.941406-19.972656-19.972656-19.972656zm0 0"/>
        <path d="m417.222656 38.0625v242.527344l-102.429687 20.898437-102.429688-20.898437v-273.089844h174.289063c16.886718 0 30.570312 13.683594 30.570312 30.5625zm0 0"/>
    </g>
    <path d="m417.222656 280.589844v154.617187c0 16.878907-13.683594 30.5625-30.570312 30.5625h-348.582032c-16.886718 0-30.570312-13.683593-30.570312-30.5625v-154.617187zm0 0" fill="#334151"/>
    <path d="m37.5 435.207031v-154.617187h-30v154.617187c0 16.878907 13.683594 30.5625 30.570312 30.5625h30c-16.886718 0-30.570312-13.683593-30.570312-30.5625zm0 0" fill="#293441"/>
    <path d="m252.167969 47.304688h125.25v200.78125h-125.25zm0 0" fill="#a7e0f5"/>
    <path d="m252.167969 47.304688h125.25v30h-125.25zm0 0" fill="#59c2e7"/>
    <path d="m382.410156 331.542969c0-11.03125-8.941406-19.972657-19.972656-19.972657h-300.152344c-11.03125 0-19.972656 8.941407-19.972656 19.972657s8.941406 19.972656 19.972656 19.972656h300.15625c11.027344 0 19.96875-8.941406 19.96875-19.972656zm0 0" fill="#a6b6c4"/>
    <path d="m417.222656 96.175781c4.144532 0 7.5-3.359375 7.5-7.5v-50.613281c0-20.988281-17.078125-38.0625-38.070312-38.0625h-348.582032c-20.992187 0-38.070312 17.074219-38.070312 38.0625v331.535156c0 4.144532 3.359375 7.5 7.5 7.5s7.5-3.355468 7.5-7.5v-81.507812h394.726562v147.117187c0 12.714844-10.351562 23.0625-23.074218 23.0625h-348.582032c-12.71875 0-23.070312-10.34375-23.070312-23.0625v-35.609375c0-4.140625-3.359375-7.5-7.5-7.5s-7.5 3.359375-7.5 7.5v35.609375c0 18.421875 13.15625 33.824219 30.570312 37.316407v14.609374c0 13.710938 11.15625 24.867188 24.867188 24.867188h31.75c13.710938 0 24.867188-11.15625 24.867188-24.867188v-13.863281h200.617187v13.863281c0 13.710938 11.152344 24.867188 24.867187 24.867188h31.746094c13.714844 0 24.867188-11.15625 24.867188-24.867188v-14.609374c17.414062-3.492188 30.574218-18.894532 30.574218-37.316407v-316.683593c0-4.140626-3.359374-7.5-7.5-7.5-4.144531 0-7.5 3.359374-7.5 7.5v154.566406h-189.863281v-258.089844h166.789063c12.722656 0 23.074218 10.34375 23.074218 23.0625v50.613281c-.003906 4.140625 3.355469 7.5 7.496094 7.5zm-320.167968 390.957031c0 5.441407-4.425782 9.867188-9.867188 9.867188h-31.75c-5.441406 0-9.867188-4.425781-9.867188-9.867188v-13.863281h51.484376zm282.097656 0c0 5.441407-4.425782 9.867188-9.867188 9.867188h-31.746094c-5.441406 0-9.867187-4.425781-9.867187-9.867188v-13.863281h51.480469zm-364.152344-214.042968v-235.027344c0-12.71875 10.347656-23.0625 23.070312-23.0625h166.792969v258.089844zm0 0"/>
    <path d="m252.167969 39.804688c-4.140625 0-7.5 3.359374-7.5 7.5v200.78125c0 4.140624 3.359375 7.5 7.5 7.5h125.25c4.140625 0 7.5-3.359376 7.5-7.5v-200.78125c0-4.140626-3.359375-7.5-7.5-7.5zm117.75 200.78125h-110.25v-185.78125h110.25zm0 0"/>
    <path d="m154.25 39.804688c-15.148438 0-27.472656 12.324218-27.472656 27.472656v160.835937c0 15.148438 12.324218 27.472657 27.472656 27.472657s27.472656-12.324219 27.472656-27.472657v-160.835937c0-15.148438-12.324218-27.472656-27.472656-27.472656zm12.472656 188.308593c0 6.875-5.59375 12.472657-12.472656 12.472657-6.875 0-12.472656-5.59375-12.472656-12.472657v-160.835937c0-6.875 5.597656-12.472656 12.472656-12.472656 6.878906 0 12.472656 5.597656 12.472656 12.472656zm0 0"/>
    <path d="m62.285156 359.015625h300.15625c15.148438 0 27.46875-12.324219 27.46875-27.472656 0-15.148438-12.320312-27.472657-27.46875-27.472657h-300.15625c-15.148437 0-27.472656 12.324219-27.472656 27.472657 0 15.148437 12.324219 27.472656 27.472656 27.472656zm0-39.945313h300.15625c6.875 0 12.46875 5.59375 12.46875 12.472657 0 6.878906-5.59375 12.472656-12.46875 12.472656h-300.15625c-6.878906 0-12.472656-5.59375-12.472656-12.472656 0-6.878907 5.59375-12.472657 12.472656-12.472657zm0 0"/>
</svg>
