<?xml version="1.0" encoding="utf-8"?>
<!-- Generator: Adobe Illustrator 23.0.3, SVG Export Plug-In . SVG Version: 6.00 Build 0)  -->
<svg version="1.1" id="Layer_1" xmlns="http://www.w3.org/2000/svg" xmlns:xlink="http://www.w3.org/1999/xlink" x="0px" y="0px"
	 viewBox="0 0 512 512" style="enable-background:new 0 0 512 512;" xml:space="preserve">
<style type="text/css">
	.st0{opacity:0.56;fill:#9E87C2;}
	.st1{fill:#4E555F;}
	.st2{fill:#9E87C2;}
	.st3{fill:none;stroke:#C8D0D8;stroke-width:6;stroke-linecap:round;stroke-miterlimit:10;}
	.st4{fill:#DEF4FB;stroke:#4E555F;stroke-width:6;stroke-linecap:round;stroke-miterlimit:10;}
	.st5{fill:none;stroke:#7DAC20;stroke-width:6;stroke-miterlimit:10;}
	.st6{fill:#98B1E8;}
	.st7{fill:#F5F5F5;}
	.st8{fill:#DDDDDD;}
	.st9{fill:#5A3699;}
	.st10{fill:#7292DF;}
	.st11{fill:#7DAC20;}
	.st12{fill:#41830E;}
	.st13{fill:#321A5A;}
	.st14{fill:#94BF28;}
	.st15{fill:#387CAF;}
	.st16{fill:#2F6699;}
</style>
<path class="st0" d="M27.84,194.04c0-6.46,2.62-12.31,6.85-16.54c4.24-4.22,10.08-6.85,16.54-6.85h102.78v-1.42h29.77
	c5.47,0,10.43-2.23,14.04-5.81c3.59-3.6,5.81-8.56,5.81-14.04c0-10.96-8.89-19.85-19.85-19.85h-29.77v-1.42h-39.7
	c-11.74,0-21.27-9.53-21.27-21.27c0-5.87,2.38-11.19,6.24-15.03c3.84-3.86,9.16-6.24,15.03-6.24H402.1
	c11.74,0,21.27,9.53,21.27,21.27c0,5.87-2.38,11.19-6.24,15.03c-3.84,3.86-9.16,6.24-15.03,6.24h-15.59v1.42h-12.76
	c-5.47,0-10.43,2.23-14.04,5.81c-3.59,3.6-5.81,8.56-5.81,14.04c0,10.96,8.89,19.85,19.85,19.85h12.76v1.42h26.23
	c12.92,0,23.39,10.48,23.39,23.39c0,6.46-2.62,12.31-6.85,16.54c-4.24,4.22-10.08,6.85-16.54,6.85h-44.66v0.01
	c-3.03,0.18-5.78,1.49-7.81,3.52c-2.18,2.18-3.53,5.2-3.53,8.52c0,6.41,5.02,11.67,11.34,12.04v0.01h107.04
	c8.22,0,14.89,6.66,14.89,14.89c0,4.11-1.67,7.83-4.37,10.52c-2.69,2.69-6.41,4.37-10.52,4.37h-98.53c-5.47,0-10.43,2.23-14.04,5.81
	c-3.59,3.6-5.81,8.56-5.81,14.04c0,10.96,8.89,19.85,19.85,19.85h33.32c12.92,0,23.39,10.48,23.39,23.39
	c0,6.46-2.62,12.31-6.85,16.54c-4.24,4.22-10.08,6.85-16.54,6.85H48.39C35.48,357.78,25,347.3,25,334.39
	c0-6.46,2.62-12.31,6.85-16.54c4.24-4.22,10.08-6.85,16.54-6.85h105.62v-0.45c3.77-0.84,7.15-2.72,9.78-5.36
	c3.59-3.6,5.81-8.56,5.81-14.04c0-9.5-6.68-17.44-15.59-19.39v-0.45h-21.97c-8.22,0-14.89-6.66-14.89-14.89
	c0-4.11,1.67-7.83,4.37-10.52c2.69-2.69,6.41-4.37,10.52-4.37h37.57v-0.2c2.47-0.43,4.69-1.63,6.39-3.33
	c2.18-2.18,3.53-5.2,3.53-8.52c0-5.93-4.28-10.86-9.92-11.87v-0.18H51.23C38.31,217.43,27.84,206.95,27.84,194.04z"/>
<path class="st0" d="M88.24,272H36.76C28.61,272,22,265.39,22,257.24v0c0-8.15,6.61-14.76,14.76-14.76h51.48
	c8.15,0,14.76,6.61,14.76,14.76v0C103,265.39,96.39,272,88.24,272z"/>
<path class="st0" d="M169.74,435H93.26C82.07,435,73,425.93,73,414.74v0c0-11.19,9.07-20.26,20.26-20.26h76.48
	c11.19,0,20.26,9.07,20.26,20.26v0C190,425.93,180.93,435,169.74,435z"/>
<path class="st1" d="M379,415c0,2.21-1.79,4-4,4h-7v7c0,1.1-0.45,2.1-1.17,2.83c-0.73,0.72-1.73,1.17-2.83,1.17c-2.21,0-4-1.79-4-4
	v-7h-7c-1.1,0-2.1-0.45-2.83-1.17c-0.72-0.73-1.17-1.73-1.17-2.83c0-2.21,1.79-4,4-4h7v-7c0-2.21,1.79-4,4-4s4,1.79,4,4v7h7
	C377.21,411,379,412.79,379,415z"/>
<path class="st1" d="M93,222c0,2.21-1.79,4-4,4h-7v7c0,1.1-0.45,2.1-1.17,2.83C80.1,236.55,79.1,237,78,237c-2.21,0-4-1.79-4-4v-7
	h-7c-1.1,0-2.1-0.45-2.83-1.17C63.45,224.1,63,223.1,63,222c0-2.21,1.79-4,4-4h7v-7c0-2.21,1.79-4,4-4s4,1.79,4,4v7h7
	C91.21,218,93,219.79,93,222z"/>
<path class="st2" d="M51.03,81.16c-1.5,1.63-4.03,1.73-5.65,0.23l-5.15-4.74l-4.74,5.15c-0.75,0.81-1.75,1.24-2.78,1.29
	c-1.02,0.03-2.07-0.31-2.87-1.06c-1.63-1.5-1.73-4.03-0.23-5.65l4.74-5.15l-5.15-4.74c-0.81-0.75-1.24-1.75-1.29-2.78
	c-0.03-1.02,0.31-2.07,1.06-2.87c1.5-1.63,4.03-1.73,5.65-0.23l5.15,4.74l4.74-5.15c1.5-1.63,4.03-1.73,5.65-0.23
	s1.73,4.03,0.23,5.65l-4.74,5.15l5.15,4.74C52.43,77.01,52.53,79.54,51.03,81.16z"/>
<path class="st3" d="M275.43,463.95c-0.3,0.25-0.6,0.49-0.91,0.71c-5.68,4.08-13.64,3.18-18.26-2.23
	c-4.87-5.71-4.19-14.3,1.52-19.17c5.71-4.87,14.3-4.19,19.17,1.52c1.53,1.79,2.51,3.86,2.96,6.01"/>
<path class="st4" d="M370.83,49.27c-0.13-0.37-0.25-0.73-0.35-1.1c-1.84-6.75,1.76-13.9,8.45-16.34c7.05-2.58,14.86,1.04,17.45,8.1
	s-1.04,14.86-8.1,17.45c-2.21,0.81-4.49,1.01-6.66,0.69"/>
<circle class="st5" cx="478.6" cy="195.6" r="11.6"/>
<g>
	<g>
		<path class="st6" d="M211,299.76h-18.94V230.3l-32.42-32.42c-1.78-1.78-2.77-4.19-2.77-6.7v-81.75h18.94v77.83l32.42,32.42
			c1.78,1.78,2.77,4.19,2.77,6.7V299.76z"/>
		<path class="st6" d="M240.98,157.98h18.94v141.79h-18.94V157.98z"/>
		<path class="st6" d="M391.23,299.76H372.3v-48.14c0-2.51,1-4.92,2.77-6.69l32.42-32.42v-58.89h18.94v62.81c0,2.51-1,4.92-2.77,6.7
			l-32.42,32.42V299.76z"/>
		<path class="st6" d="M323.38,94.85h18.94v204.92h-18.94V94.85z"/>
	</g>
	<path class="st7" d="M185.59,331.33v49.87H397.7v-49.87l-106.05-76.39L185.59,331.33z"/>
	<path class="st8" d="M185.59,331.33v36.77c1.68-0.65,3.3-1.49,4.82-2.52l101.24-68.27l101.24,68.27c1.52,1.02,3.13,1.86,4.81,2.52
		v-36.77l-106.05-76.38L185.59,331.33z"/>
	<path class="st9" d="M426.53,315.7L304,233.08c-7.47-5.03-17.24-5.03-24.71,0L156.77,315.7c-3.8,2.57-4.81,7.73-2.24,11.53
		l15.42,22.86c2.57,3.8,7.73,4.81,11.53,2.24l110.17-74.29l110.17,74.29c3.8,2.56,8.97,1.56,11.53-2.24l15.41-22.86
		C431.34,323.43,430.33,318.26,426.53,315.7z"/>
	<path class="st10" d="M156.87,155.7c3.06,0.63,6.23,0.96,9.47,0.96s6.41-0.33,9.47-0.96v-46.27h-18.94V155.7z"/>
	<path class="st11" d="M197.59,109.43c0,17.26-13.99,31.25-31.25,31.25c-17.26,0-31.25-13.99-31.25-31.25
		c0-17.26,13.99-31.25,31.25-31.25C183.6,78.18,197.59,92.17,197.59,109.43z"/>
	<path class="st12" d="M179.12,127.9c-17.26,0-31.25-13.99-31.25-31.25c0-5.34,1.34-10.37,3.7-14.77
		c-9.81,5.27-16.49,15.63-16.49,27.54c0,17.26,13.99,31.25,31.25,31.25c11.92,0,22.27-6.67,27.55-16.49
		C189.49,126.56,184.46,127.9,179.12,127.9z"/>
	<path class="st10" d="M240.98,204.24c3.06,0.63,6.23,0.96,9.47,0.96s6.41-0.33,9.47-0.96v-46.27h-18.94V204.24z"/>
	<path class="st9" d="M281.7,157.98c0,17.26-13.99,31.25-31.25,31.25c-17.26,0-31.25-13.99-31.25-31.25
		c0-17.26,13.99-31.25,31.25-31.25C267.71,126.73,281.7,140.72,281.7,157.98z"/>
	<path class="st13" d="M263.23,176.44c-17.26,0-31.25-13.99-31.25-31.25c0-5.34,1.34-10.37,3.7-14.77
		c-9.81,5.27-16.49,15.63-16.49,27.55c0,17.26,13.99,31.25,31.25,31.25c11.92,0,22.27-6.67,27.54-16.49
		C273.6,175.1,268.57,176.44,263.23,176.44z"/>
	<path class="st10" d="M407.49,199.89c3.06,0.62,6.23,0.95,9.47,0.95s6.41-0.33,9.47-0.95v-46.27h-18.94V199.89z"/>
	<path class="st14" d="M448.21,153.62c0,17.26-13.99,31.25-31.25,31.25c-17.26,0-31.25-13.99-31.25-31.25s13.99-31.25,31.25-31.25
		C434.22,122.37,448.21,136.36,448.21,153.62z"/>
	<path class="st11" d="M429.74,172.09c-17.26,0-31.25-13.99-31.25-31.25c0-5.34,1.34-10.37,3.7-14.76
		c-9.81,5.27-16.49,15.63-16.49,27.54c0,17.26,13.99,31.25,31.25,31.25c11.92,0,22.27-6.67,27.54-16.49
		C440.11,170.75,435.08,172.09,429.74,172.09z"/>
	<path class="st10" d="M323.38,141.12c3.06,0.62,6.23,0.95,9.47,0.95s6.41-0.33,9.47-0.95V94.85h-18.94V141.12z"/>
	<path class="st15" d="M364.09,94.85c0,17.26-13.99,31.25-31.25,31.25S301.6,112.1,301.6,94.85c0-17.26,13.99-31.25,31.25-31.25
		S364.09,77.59,364.09,94.85z"/>
	<path class="st16" d="M345.63,113.32c-17.26,0-31.25-13.99-31.25-31.25c0-5.34,1.34-10.36,3.7-14.76
		c-9.81,5.27-16.49,15.63-16.49,27.54c0,17.26,13.99,31.25,31.25,31.25c11.92,0,22.27-6.67,27.54-16.49
		C355.99,111.97,350.97,113.32,345.63,113.32z"/>
	<path d="M240.22,359.56c2.65,0,4.79-2.14,4.79-4.79v-9.31c0-2.65-2.14-4.79-4.79-4.79c-2.65,0-4.79,2.15-4.79,4.79v9.31
		C235.42,357.41,237.57,359.56,240.22,359.56z"/>
	<path d="M343.08,359.56c2.65,0,4.79-2.14,4.79-4.79v-9.31c0-2.65-2.15-4.79-4.79-4.79c-2.65,0-4.79,2.15-4.79,4.79v9.31
		C338.29,357.41,340.44,359.56,343.08,359.56z"/>
	<path d="M380.92,153.62c0,14.81,8.98,27.56,21.78,33.09v23.81l-31.02,31.02c-2.69,2.69-4.18,6.27-4.18,10.08v18.49l-20.4-13.75
		V127.94c12.8-5.54,21.78-18.28,21.78-33.09c0-19.87-16.17-36.04-36.04-36.04c-19.87,0-36.04,16.17-36.04,36.04
		c0,14.81,8.98,27.56,21.78,33.09v109.19l-11.9-8.03c-9.13-6.16-20.93-6.16-30.06,0l-11.9,8.03v-46.06
		c12.8-5.54,21.78-18.28,21.78-33.1c0-19.87-16.17-36.04-36.04-36.04c-19.87,0-36.04,16.17-36.04,36.04
		c0,14.81,8.98,27.56,21.78,33.09v65.3l-20.4,13.75v-43.74c0-3.81-1.48-7.39-4.18-10.08l-31.02-31.02v-42.75
		c12.8-5.54,21.78-18.28,21.78-33.09c0-19.87-16.17-36.04-36.04-36.04s-36.04,16.17-36.04,36.04c0,14.81,8.98,27.55,21.78,33.09
		v48.66c0,3.81,1.48,7.39,4.18,10.08l31.02,31.02v57.07c0,0-33.16,22.36-33.18,22.37c-5.92,3.99-7.53,12.27-3.54,18.19
		c0,0,15.4,22.84,15.42,22.86c3.2,4.75,9.38,6.9,14.83,5.16v23.26c0,2.65,2.15,4.79,4.79,4.79h212.11c2.65,0,4.79-2.15,4.79-4.79
		v-23.27c5.4,1.71,11.51-0.22,14.83-5.15c0,0,15.4-22.84,15.41-22.86c3.99-5.91,2.36-14.21-3.54-18.19l-33.18-22.37v-31.81
		l31.02-31.02c2.69-2.69,4.18-6.28,4.18-10.09v-29.72c12.8-5.54,21.78-18.28,21.78-33.1c0-19.87-16.17-36.04-36.04-36.04
		S380.92,133.75,380.92,153.62z M306.39,94.85c0-14.59,11.87-26.46,26.46-26.46s26.46,11.87,26.46,26.46
		c0,13.91-11.52,25.88-25.41,26.43c-0.05,0-0.1,0-0.15,0C318.99,121.81,306.39,109.56,306.39,94.85z M328.17,243.59V130.58
		c1.53,0.2,3.07,0.3,4.61,0.3h0.06h0.06c1.54,0,3.09-0.1,4.61-0.3V249.9L328.17,243.59z M224,157.98
		c0-14.59,11.87-26.46,26.46-26.46c14.59,0,26.46,11.87,26.46,26.46c0,11.84-7.82,21.89-18.57,25.25c-5.1,1.6-10.66,1.57-15.77,0
		C231.82,179.87,224,169.82,224,157.98z M245.78,193.71c0.01,0.25,4.19,0.3,4.59,0.3c0.03,0,0.06,0,0.08,0c0.03,0,0.05,0,0.08,0
		c1.53-0.01,3.07-0.1,4.59-0.3v49.88l-9.35,6.31V193.71z M139.89,109.43c0-14.59,11.87-26.46,26.46-26.46s26.46,11.87,26.46,26.46
		c0,11.84-7.82,21.89-18.57,25.25c-5.09,1.59-10.68,1.59-15.77,0C147.71,131.32,139.89,121.28,139.89,109.43z M195.45,226.91
		l-32.42-32.42c-0.88-0.88-1.37-2.06-1.37-3.31v-46.01c0.01,0.25,4.19,0.29,4.62,0.3c0.02,0,0.04,0,0.05,0c0.02,0,0.04,0,0.05,0
		c1.54,0,3.09-0.1,4.62-0.3v42.09c0,1.27,0.5,2.49,1.4,3.39l32.42,32.42c0.88,0.88,1.37,2.06,1.37,3.31v50.2l-9.35,6.31V230.3
		C196.86,229.03,196.35,227.81,195.45,226.91z M425.32,321.92c0.17,0.89,0.01,1.84-0.52,2.63l-15.42,22.86
		c-1.08,1.61-3.27,2.03-4.88,0.95c0,0-110.14-74.27-110.17-74.29c-1.61-1.08-3.76-1.08-5.36,0l-70.34,47.44
		c-2.19,1.48-2.77,4.46-1.29,6.65c1.44,2.13,4.47,2.77,6.65,1.29l67.66-45.63l101.26,68.28v24.3H190.39v-24.3
		c0,0,17.94-12.1,17.96-12.11c2.16-1.46,2.75-4.49,1.29-6.65c-1.48-2.19-4.46-2.77-6.65-1.29c0,0-24.14,16.28-24.18,16.31
		c-1.59,1.07-3.81,0.64-4.88-0.95c0,0-15.38-22.81-15.42-22.86c-1.08-1.6-0.64-3.81,0.95-4.88l122.52-82.62
		c5.88-3.96,13.47-3.96,19.35,0c0,0,122.44,82.57,122.52,82.62C424.65,320.21,425.15,321.03,425.32,321.92z M421.63,189.36v27.07
		c0,1.23-0.5,2.44-1.37,3.31l-32.42,32.42c-0.9,0.9-1.41,2.12-1.41,3.39v27.34l-9.35-6.31v-24.95c0-1.25,0.49-2.42,1.37-3.31
		l32.42-32.42c0.9-0.9,1.4-2.12,1.4-3.39v-23.15c0.01,0.25,4.19,0.3,4.62,0.3h0.06h0.06C418.56,189.66,420.11,189.56,421.63,189.36z
		 M443.41,153.62c0,11.84-7.82,21.89-18.57,25.26c-0.04,0.01-0.08,0.02-0.11,0.03c-5.03,1.52-10.51,1.55-15.54,0
		c-0.03-0.01-0.07-0.02-0.1-0.03c-10.75-3.36-18.57-13.41-18.57-25.26c0-14.59,11.87-26.46,26.46-26.46
		C431.54,127.17,443.41,139.03,443.41,153.62z"/>
	<path d="M291.65,364.53c-6.33,0-12.27-2.65-16.3-7.26c-1.74-1.99-1.54-5.02,0.45-6.76c1.99-1.74,5.02-1.54,6.76,0.45
		c2.21,2.53,5.52,3.98,9.09,3.98c3.56,0,6.88-1.45,9.09-3.98c1.74-1.99,4.77-2.2,6.76-0.45c1.99,1.74,2.2,4.77,0.45,6.76
		C303.92,361.88,297.98,364.53,291.65,364.53z"/>
</g>
</svg>
