<?xml version="1.0" encoding="utf-8"?>
<!-- Generator: Adobe Illustrator 19.2.1, SVG Export Plug-In . SVG Version: 6.00 Build 0)  -->
<svg version="1.1" id="NC" xmlns="http://www.w3.org/2000/svg" xmlns:xlink="http://www.w3.org/1999/xlink" x="0px" y="0px"
	 viewBox="0 0 119.055 119.055" enable-background="new 0 0 119.055 119.055" xml:space="preserve">
<path id="bg" fill="#FFFFFF" d="M59.528,3.64C28.662,3.64,3.64,28.662,3.64,59.528c0,30.866,25.022,55.887,55.887,55.887
	s55.887-25.022,55.887-55.887C115.415,28.662,90.393,3.64,59.528,3.64z"/>
<path id="n" fill="#5A3699" d="M84.979,68.808c-0.237,5.073-0.55,10.142-0.835,15.213c-0.032,0.57-0.101,1.138-0.16,1.791
	c-4.974,0-9.848,0-14.911,0c0.161-3.108,0.316-6.119,0.472-9.131c0.389-7.521,0.867-15.039,1.143-22.564
	c0.264-7.208-2.318-9.635-9.541-9.317c-7.257,0.319-11.055,3.997-11.465,11.206c-0.507,8.918-0.953,17.84-1.432,26.76
	c-0.053,0.983-0.147,1.963-0.243,3.232c-4.992,0-9.877,0-14.763,0c0-2.454,0-4.908,0-7.363c0.247-3.655,0.533-7.308,0.735-10.966
	c0.587-10.609,1.139-21.219,1.709-31.829c0.021-0.395,0.086-0.788,0.14-1.268c4.741,0,9.383,0,14.095,0c0,2.185,0,4.318,0,6.434
	c1.47-1.344,2.885-2.872,4.527-4.096c6.304-4.697,17.94-5.162,24.647-1.052c4.32,2.647,6.721,6.633,6.715,11.603
	C85.804,54.578,85.312,61.694,84.979,68.808z"/>
</svg>
