<svg height="512pt" viewBox="-18 0 512 512" width="512pt" xmlns="http://www.w3.org/2000/svg"><g fill="#ebebeb"><path d="m427.710938 33.191406h-379.203126c-22.648437 0-41.007812 18.359375-41.007812 41.007813 0 22.648437 18.359375 41.007812 41.007812 41.007812h379.203126c22.644531 0 41.007812-18.359375 41.007812-41.007812-.003906-22.648438-18.363281-41.007813-41.007812-41.007813zm0 0"/><path d="m427.710938 214.992188h-379.203126c-22.648437 0-41.007812 18.359374-41.007812 41.007812s18.359375 41.007812 41.007812 41.007812h379.203126c22.644531 0 41.007812-18.359374 41.007812-41.007812-.003906-22.648438-18.363281-41.007812-41.007812-41.007812zm0 0"/><path d="m427.710938 396.792969h-379.203126c-22.648437 0-41.007812 18.359375-41.007812 41.007812 0 22.648438 18.359375 41.007813 41.007812 41.007813h379.203126c22.644531 0 41.007812-18.359375 41.007812-41.007813-.003906-22.648437-18.363281-41.007812-41.007812-41.007812zm0 0"/></g><path d="m103.257812 74.199219c0 14.652343 3.28125 28.550781 9.136719 41.007812h175.121094c5.855469-12.457031 9.136719-26.355469 9.136719-41.007812 0-14.652344-3.28125-28.550781-9.136719-41.007813h-175.121094c-5.855469 12.457032-9.136719 26.355469-9.136719 41.007813zm0 0" fill="#d5d4da"/><path d="m266.65625 74.199219c0 36.839843-29.863281 66.699219-66.699219 66.699219-36.839843 0-66.699219-29.859376-66.699219-66.699219 0-36.835938 29.859376-66.699219 66.699219-66.699219 36.835938 0 66.699219 29.863281 66.699219 66.699219zm0 0" fill="#7292df"/><path d="m255.921875 214.992188c-5.859375 12.457031-9.140625 26.355468-9.140625 41.007812s3.285156 28.550781 9.140625 41.007812h171.789063c1.144531 0 2.277343-.058593 3.402343-.152343 5.8125-12.417969 9.070313-26.261719 9.070313-40.855469s-3.257813-28.4375-9.070313-40.855469c-1.125-.09375-2.257812-.152343-3.402343-.152343zm0 0" fill="#d5d4da"/><path d="m410.183594 256c0 36.835938-29.863282 66.699219-66.703125 66.699219-36.835938 0-66.699219-29.863281-66.699219-66.699219s29.863281-66.699219 66.699219-66.699219c36.839843 0 66.703125 29.863281 66.703125 66.699219zm0 0" fill="#7292df"/><path d="m41.746094 437.800781c0 14.652344 3.28125 28.550781 9.136718 41.007813h175.121094c5.859375-12.457032 9.140625-26.355469 9.140625-41.007813 0-14.652343-3.28125-28.550781-9.140625-41.007812h-175.121094c-5.855468 12.457031-9.136718 26.355469-9.136718 41.007812zm0 0" fill="#d5d4da"/><path d="m205.144531 437.800781c0 36.835938-29.863281 66.699219-66.699219 66.699219-36.839843 0-66.703124-29.863281-66.703124-66.699219 0-36.839843 29.863281-66.699219 66.703124-66.699219 36.835938 0 66.699219 29.859376 66.699219 66.699219zm0 0" fill="#7292df"/><path d="m48.507812 122.707031h95.371094c13.617188 15.71875 33.695313 25.691407 56.078125 25.691407 22.378907 0 42.460938-9.972657 56.074219-25.691407h171.679688c26.746093 0 48.507812-21.761719 48.507812-48.507812 0-26.746094-21.761719-48.507813-48.507812-48.507813h-171.679688c-13.617188-15.71875-33.695312-25.691406-56.074219-25.691406-22.378906 0-42.460937 9.972656-56.078125 25.691406h-95.371094c-26.746093 0-48.507812 21.761719-48.507812 48.507813 0 26.746093 21.761719 48.507812 48.507812 48.507812zm217.671876-82.015625h161.53125c18.472656 0 33.507812 15.03125 33.507812 33.507813 0 18.476562-15.035156 33.507812-33.507812 33.507812h-161.53125c4.105468-8.0625 6.660156-16.78125 7.582031-25.859375.003906-.046875.011719-.09375.015625-.144531 1.40625-13.941406-1.1875-28.425781-7.597656-41.011719zm-66.222657-25.691406c28.644531 0 54.136719 21.839844 58.503907 50.132812.011718.0625.019531.125.027343.1875 5.1875 34.582032-23.515625 68.078126-58.53125 68.078126-35.710937 0-63.707031-32.824219-58.535156-68.066407.011719-.066406.019531-.136719.03125-.207031 4.386719-28.398438 29.773437-50.125 58.503906-50.125zm-151.449219 25.691406h85.226563c-6.40625 12.578125-8.996094 26.96875-7.601563 41.003906.007813.054688.011719.109376.019532.160157.921875 9.078125 3.476562 17.792969 7.582031 25.851562h-85.226563c-18.476562 0-33.507812-15.03125-33.507812-33.507812 0-18.476563 15.03125-33.507813 33.507812-33.507813zm0 0"/><path d="m48.507812 304.507812h238.898438c13.617188 15.71875 33.695312 25.691407 56.078125 25.691407 22.378906 0 42.460937-9.972657 56.074219-25.691407h28.152344c26.746093 0 48.507812-21.761718 48.507812-48.507812s-21.761719-48.507812-48.507812-48.507812h-28.152344c-13.613282-15.71875-33.695313-25.691407-56.074219-25.691407-22.382813 0-42.460937 9.972657-56.078125 25.691407h-156.511719c-4.144531 0-7.5 3.359374-7.5 7.5 0 4.140624 3.355469 7.5 7.5 7.5h146.363281c-4.105468 8.0625-6.660156 16.78125-7.582031 25.859374-.511719 5.039063-.515625 10.109376-.015625 15.152344.003906.046875.011719.097656.015625.144532.921875 9.078124 3.476563 17.796874 7.582031 25.859374h-228.75c-18.476562 0-33.507812-15.03125-33.507812-33.511718 0-18.476563 15.03125-33.507813 33.507812-33.507813h52.386719c4.140625 0 7.5-3.355469 7.5-7.5 0-4.140625-3.359375-7.5-7.5-7.5h-52.386719c-26.746093 0-48.507812 21.761719-48.507812 48.507813 0 26.75 21.761719 48.511718 48.507812 48.511718zm361.195313-82.015624h18.003906c18.476563 0 33.507813 15.03125 33.507813 33.507812s-15.03125 33.507812-33.507813 33.507812h-18.003906c4.109375-8.0625 6.664063-16.78125 7.585937-25.859374.511719-5.058594.519532-10.214844 0-15.296876-.921874-9.078124-3.476562-17.796874-7.585937-25.859374zm-66.222656-25.691407c29.632812 0 55.847656 23.652344 58.882812 53.109375 3.539063 34.367188-24.378906 65.289063-58.882812 65.289063-29.183594 0-55.464844-23.40625-58.804688-52.402344-3.945312-34.253906 24.015625-65.996094 58.804688-65.996094zm0 0"/><path d="m48.507812 486.308594h33.859376c13.617187 15.71875 33.699218 25.691406 56.078124 25.691406 22.378907 0 42.460938-9.972656 56.074219-25.691406h233.1875c26.746094 0 48.507813-21.761719 48.507813-48.507813 0-26.746093-21.761719-48.507812-48.507813-48.507812h-53.8125c-4.144531 0-7.5 3.359375-7.5 7.5s3.355469 7.5 7.5 7.5h53.8125c18.476563 0 33.507813 15.03125 33.507813 33.507812 0 18.476563-15.03125 33.507813-33.507813 33.507813h-223.039062c4.105469-8.0625 6.660156-16.78125 7.582031-25.859375.007812-.046875.011719-.097657.015625-.148438 1.457031-14.015625-1.203125-28.453125-7.597656-41.007812h139.226562c4.140625 0 7.5-3.359375 7.5-7.5 0-4.144531-3.359375-7.5-7.5-7.5h-149.375c-13.613281-15.71875-33.695312-25.691407-56.074219-25.691407-22.382812 0-42.460937 9.972657-56.078124 25.691407h-33.859376c-26.746093 0-48.507812 21.761719-48.507812 48.507812 0 26.746094 21.761719 48.507813 48.507812 48.507813zm89.9375-107.707032c32.136719 0 59.199219 27.054688 59.199219 59.199219 0 32.21875-27.027343 59.199219-59.199219 59.199219-28.796874 0-55.226562-23.339844-58.753906-51.945312-4.285156-34.765626 23.800782-66.453126 58.753906-66.453126zm-89.9375 25.691407h23.714844c-4.109375 8.0625-6.664062 16.777343-7.585937 25.855469-1.429688 14.097656 1.148437 28.523437 7.585937 41.160156h-23.714844c-18.476562 0-33.507812-15.03125-33.507812-33.507813 0-18.476562 15.03125-33.507812 33.507812-33.507812zm0 0"/></svg>