<svg height="512pt" viewBox="0 -12 512 512" width="512pt" xmlns="http://www.w3.org/2000/svg"><path d="m210.367188 356.082031h91.265624v98.277344h-91.265624zm0 0" fill="#334151"/><path d="m317 427.691406h-122c-14.726562 0-26.667969 11.941406-26.667969 26.667969 0 14.730469 11.941407 26.667969 26.667969 26.667969h122c14.726562 0 26.667969-11.9375 26.667969-26.667969 0-14.726563-11.941407-26.667969-26.667969-26.667969zm0 0" fill="#293441"/><path d="m210.367188 356.085938h91.265624v47.554687h-91.265624zm0 0" fill="#293441"/><path d="m474.792969 7.5h-437.585938c-16.40625 0-29.707031 13.300781-29.707031 29.707031v311.726563c0 16.40625 13.300781 29.707031 29.707031 29.707031h437.585938c16.40625 0 29.707031-13.300781 29.707031-29.707031v-311.726563c0-16.40625-13.300781-29.707031-29.707031-29.707031zm0 0" fill="#334151"/><path d="m57.5 57.5h397v271.140625h-397zm0 0" fill="#76e6d5"/><path d="m57.5 57.5h397v30h-397zm0 0" fill="#00ccac"/><path d="m335.359375 102.738281h-158.71875c-14.34375 0-25.976563 11.625-25.976563 25.972657v128.71875c0 14.34375 11.628907 25.972656 25.976563 25.972656h158.71875c14.34375 0 25.972656-11.625 25.972656-25.972656v-128.71875c0-14.347657-11.628906-25.972657-25.972656-25.972657zm0 0" fill="#fd5f7e"/><path d="m255.664062 229.511719 37.9375-22.378907c10.707032-6.316406 10.707032-21.808593 0-28.125l-37.9375-22.378906c-11.179687-6.597656-25.296874 1.464844-25.296874 14.445313v43.988281c0 12.984375 14.117187 21.046875 25.296874 14.449219zm0 0" fill="#ebebeb"/><path d="m265.511719 353.640625c0 5.253906-4.257813 9.511719-9.511719 9.511719s-9.511719-4.257813-9.511719-9.511719c0-5.25 4.257813-9.507813 9.511719-9.507813s9.511719 4.257813 9.511719 9.507813zm0 0" fill="#76e6d5"/><path d="m462 328.640625v-271.140625c0-4.140625-3.359375-7.5-7.5-7.5h-397c-4.140625 0-7.5 3.359375-7.5 7.5v271.140625c0 4.140625 3.359375 7.5 7.5 7.5h64.285156c4.144532 0 7.5-3.359375 7.5-7.5s-3.355468-7.5-7.5-7.5h-56.785156v-256.140625h382v256.140625h-295.214844c-4.140625 0-7.5 3.359375-7.5 7.5s3.359375 7.5 7.5 7.5h302.714844c4.140625 0 7.5-3.359375 7.5-7.5zm0 0"/><path d="m176.640625 290.902344h158.71875c18.457031 0 33.472656-15.015625 33.472656-33.472656v-128.71875c0-18.457032-15.015625-33.472657-33.472656-33.472657h-158.71875c-18.457031 0-33.476563 15.015625-33.476563 33.472657v128.71875c.003907 18.457031 15.019532 33.472656 33.476563 33.472656zm-18.472656-162.191406c0-10.1875 8.285156-18.472657 18.472656-18.472657h158.71875c10.1875 0 18.476563 8.285157 18.476563 18.472657v128.71875c0 10.1875-8.289063 18.472656-18.476563 18.472656h-158.71875c-10.1875 0-18.476563-8.285156-18.476563-18.472656v-128.71875zm0 0"/><path d="m247.175781 239.128906c4.164063.113282 8.402344-.859375 12.300781-3.15625 0 0 37.910157-22.367187 37.933594-22.378906 15.371094-9.070312 15.339844-31.996094 0-41.046875 0 0-37.929687-22.375-37.933594-22.378906-15.769531-9.300781-36.609374 2.332031-36.609374 20.910156v43.984375c0 13.582031 11.824218 23.714844 24.308593 24.066406zm-9.308593-68.050781c0-7.042969 7.957031-11.546875 13.988281-7.988281 0 0 37.933593 22.378906 37.9375 22.378906 5.722656 3.378906 5.675781 11.855469-.003907 15.207031 0 0-37.917968 22.367188-37.933593 22.375-6.082031 3.589844-13.988281-.925781-13.988281-7.988281 0 0 0-43.90625 0-43.984375zm0 0"/><path d="m265.511719 353.640625c0 5.253906-4.257813 9.511719-9.511719 9.511719s-9.511719-4.257813-9.511719-9.511719c0-5.25 4.257813-9.507813 9.511719-9.507813s9.511719 4.257813 9.511719 9.507813zm0 0"/><path d="m474.792969 0h-73.007813c-4.140625 0-7.5 3.359375-7.5 7.5s3.359375 7.5 7.5 7.5h73.007813c12.246093 0 22.207031 9.960938 22.207031 22.207031v311.726563c0 12.246094-9.960938 22.207031-22.207031 22.207031h-437.585938c-12.246093 0-22.207031-9.960937-22.207031-22.207031v-311.726563c0-12.246093 9.960938-22.207031 22.207031-22.207031h334.578125c4.144532 0 7.5-3.359375 7.5-7.5s-3.355468-7.5-7.5-7.5h-334.578125c-20.515625 0-37.207031 16.691406-37.207031 37.207031v311.726563c0 20.515625 16.691406 37.207031 37.207031 37.207031h165.660157v34.050781h-7.867188c-18.839844 0-34.167969 15.328125-34.167969 34.167969s15.328125 34.167969 34.167969 34.167969h122c18.839844 0 34.167969-15.328125 34.167969-34.167969s-15.328125-34.167969-34.167969-34.167969h-7.867188v-34.050781h165.660157c20.515625 0 37.207031-16.691406 37.207031-37.207031v-311.726563c0-20.515625-16.691406-37.207031-37.207031-37.207031zm-138.625 454.359375c0 10.566406-8.597657 19.167969-19.167969 19.167969h-122c-10.570312 0-19.167969-8.597656-19.167969-19.167969s8.597657-19.167969 19.167969-19.167969h122c10.570312 0 19.167969 8.597656 19.167969 19.167969zm-42.035157-34.167969h-76.265624v-34.050781h76.265624zm0 0"/></svg>