<svg height="512pt" viewBox="0 -4 512 512" width="512pt" 
    xmlns="http://www.w3.org/2000/svg">
    <path d="m141.867188 428.613281v37.671875c0 17.1875 13.933593 31.117188 31.117187 31.117188h18.191406c17.183594 0 31.117188-13.929688 31.117188-31.117188v-37.671875zm0 0" fill="#ebebeb"/>
    <path d="m171.867188 466.285156v-37.671875h-30v37.671875c0 17.1875 13.933593 31.117188 31.117187 31.117188h18.191406c2.019531 0 3.992188-.199219 5.90625-.566406-14.363281-2.757813-25.214843-15.382813-25.214843-30.550782zm0 0" fill="#d5d4da"/>
    <path d="m92.828125 357.316406c0-38.578125-85.328125-62.445312-85.328125-175.238281 0-96.417969 78.160156-174.578125 174.582031-174.578125 96.417969 0 174.578125 78.160156 174.578125 174.578125 0 112.792969-85.328125 136.660156-85.328125 175.238281l-89.253906 24.191406zm0 0" fill="#f5e277"/>
    <path d="m122.828125 357.316406c0-38.578125-85.328125-62.445312-85.328125-175.234375 0-91.363281 70.1875-166.324219 159.582031-173.933593-4.945312-.421876-9.945312-.648438-15-.648438-96.421875 0-174.582031 78.160156-174.582031 174.578125 0 112.792969 85.328125 136.660156 85.328125 175.234375l89.253906 24.195312 15-4.066406zm0 0" fill="#f0bc63"/>
    <path d="m254.660156 405.699219-72.578125-24.191407-72.578125 24.191407c-13.363281 0-24.195312 10.832031-24.195312 24.195312 0 13.359375 10.832031 24.191407 24.195312 24.191407h145.15625c13.359375 0 24.191406-10.832032 24.191406-24.191407 0-13.363281-10.832031-24.195312-24.191406-24.195312zm0 0" fill="#d5d4da"/>
    <path d="m115.308594 429.894531c0-13.363281 10.832031-24.195312 24.195312-24.195312l57.574219-19.191407-15-5-72.574219 24.191407c-13.363281 0-24.195312 10.832031-24.195312 24.195312 0 13.359375 10.832031 24.191407 24.195312 24.191407h30c-13.363281 0-24.195312-10.832032-24.195312-24.191407zm0 0" fill="#b8b5ca"/>
    <path d="m271.332031 357.316406h-178.503906c-13.359375 0-24.191406 10.828125-24.191406 24.191406 0 13.363282 10.832031 24.191407 24.191406 24.191407h178.503906c13.363281 0 24.195313-10.828125 24.195313-24.191407 0-13.363281-10.832032-24.191406-24.195313-24.191406zm0 0" fill="#ebebeb"/>
    <path d="m98.636719 381.507812c0-13.363281 10.832031-24.195312 24.191406-24.195312h-30c-13.359375 0-24.191406 10.832031-24.191406 24.195312 0 13.359376 10.832031 24.191407 24.191406 24.191407h30c-13.359375 0-24.191406-10.832031-24.191406-24.191407zm0 0" fill="#d5d4da"/>
    <path d="m463.410156 155.523438h-173.703125c-22.691406 0-41.089843 18.394531-41.089843 41.089843v259.699219c0 22.695312 18.398437 41.089844 41.089843 41.089844h173.703125c22.691406 0 41.089844-18.394532 41.089844-41.089844v-259.699219c0-22.695312-18.398438-41.089843-41.089844-41.089843zm0 0" fill="#334151"/>
    <path d="m289.707031 438.261719c-.914062 0-1.660156-.746094-1.660156-1.660157v-239.988281c0-.917969.742187-1.664062 1.660156-1.664062h173.703125c.914063 0 1.660156.746093 1.660156 1.664062v239.988281c0 .914063-.746093 1.660157-1.660156 1.660157zm0 0" fill="#76e6d5"/>
    <path d="m463.410156 194.949219h-173.703125c-.917969 0-1.660156.746093-1.660156 1.664062v30c0-.917969.742187-1.664062 1.660156-1.664062h173.703125c.914063 0 1.660156.746093 1.660156 1.664062v-30c0-.917969-.746093-1.664062-1.660156-1.664062zm0 0" fill="#00ccac"/>
    <path d="m400.644531 252.535156h-48.167969c-11.25 0-20.371093 9.117188-20.371093 20.367188s9.121093 20.367187 20.371093 20.367187h48.167969c11.246094 0 20.367188-9.117187 20.367188-20.367187s-9.121094-20.367188-20.367188-20.367188zm0 0" fill="#ebebeb"/>
    <path d="m400.644531 380.679688h-48.167969c-11.25 0-20.371093-9.121094-20.371093-20.371094 0-11.246094 9.121093-20.367188 20.371093-20.367188h48.167969c11.246094 0 20.367188 9.121094 20.367188 20.367188 0 11.25-9.121094 20.371094-20.367188 20.371094zm0 0" fill="#ff889e"/>
    <path d="m105.6875 105.597656c4.140625 0 7.5-3.359375 7.5-7.5v-13.824218c0-4.144532-3.359375-7.5-7.5-7.5s-7.5 3.355468-7.5 7.5v13.824218c0 4.140625 3.359375 7.5 7.5 7.5zm0 0"/>
    <path d="m265.972656 98.097656v-13.824218c0-4.144532-3.355468-7.5-7.5-7.5-4.140625 0-7.5 3.355468-7.5 7.5v13.824218c0 4.140625 3.359375 7.5 7.5 7.5 4.144532 0 7.5-3.359375 7.5-7.5zm0 0"/>
    <path d="m182.082031 112.976562c9.511719 0 18.441407-3.972656 24.5-10.90625 2.726563-3.117187 2.40625-7.855468-.710937-10.582031-3.117188-2.726562-7.855469-2.410156-10.582032.710938-3.210937 3.671875-8.023437 5.777343-13.207031 5.777343-5.1875 0-10-2.105468-13.210937-5.777343-2.722656-3.117188-7.460938-3.4375-10.582032-.710938-3.117187 2.726563-3.4375 7.464844-.710937 10.582031 6.058594 6.933594 14.988281 10.90625 24.503906 10.90625zm0 0"/>
    <path d="m463.410156 187.449219h-173.703125c-5.050781 0-9.160156 4.113281-9.160156 9.164062v239.988281c0 5.050782 4.109375 9.160157 9.160156 9.160157h173.703125c5.050782 0 9.160156-4.109375 9.160156-9.160157v-50.300781c0-4.144531-3.355468-7.5-7.5-7.5-4.140624 0-7.5 3.355469-7.5 7.5v44.460938h-162.023437v-228.3125h162.023437v154.234375c0 4.140625 3.359376 7.5 7.5 7.5 4.144532 0 7.5-3.359375 7.5-7.5v-160.070313c0-5.050781-4.109374-9.164062-9.160156-9.164062zm0 0"/>
    <path d="m381.816406 175.238281c0 2.902344-2.355468 5.253907-5.257812 5.253907s-5.257813-2.351563-5.257813-5.253907c0-2.90625 2.355469-5.257812 5.257813-5.257812s5.257812 2.351562 5.257812 5.257812zm0 0"/>
    <path d="m386.578125 467.832031c0 5.535157-4.484375 10.023438-10.019531 10.023438s-10.019532-4.488281-10.019532-10.023438c0-5.535156 4.484376-10.019531 10.019532-10.019531s10.019531 4.484375 10.019531 10.019531zm0 0"/>
    <path d="m400.644531 245.035156h-48.167969c-15.367187 0-27.871093 12.5-27.871093 27.867188 0 15.367187 12.503906 27.867187 27.871093 27.867187h48.167969c15.363281 0 27.867188-12.5 27.867188-27.867187 0-15.367188-12.503907-27.867188-27.867188-27.867188zm0 40.734375h-48.167969c-7.097656 0-12.871093-5.769531-12.871093-12.867187 0-7.09375 5.773437-12.867188 12.871093-12.867188h48.167969c7.09375 0 12.867188 5.773438 12.867188 12.867188 0 7.097656-5.773438 12.867187-12.867188 12.867187zm0 0"/>
    <path d="m400.644531 332.441406h-48.167969c-15.367187 0-27.871093 12.5-27.871093 27.867188 0 15.367187 12.503906 27.871094 27.871093 27.871094h48.167969c15.363281 0 27.867188-12.503907 27.867188-27.871094 0-15.367188-12.503907-27.867188-27.867188-27.867188zm0 40.738282h-48.167969c-7.097656 0-12.871093-5.773438-12.871093-12.871094 0-7.09375 5.773437-12.867188 12.871093-12.867188h48.167969c7.09375 0 12.867188 5.773438 12.867188 12.867188 0 7.097656-5.773438 12.871094-12.867188 12.871094zm0 0"/>
    <path d="m463.410156 148.023438h-102.441406c-7.601562-40.089844-28.636719-76.683594-59.714844-103.609376-33.058594-28.640624-75.382812-44.414062-119.171875-44.414062-55.042969 0-106.554687 24.523438-141.328125 67.285156-2.613281 3.210938-2.125 7.9375 1.085938 10.550782 3.214844 2.613281 7.9375 2.125 10.550781-1.089844 31.914063-39.238282 79.183594-61.746094 129.6875-61.746094 40.1875 0 79.019531 14.472656 109.351563 40.75 27.800781 24.085938 46.855468 56.59375 54.257812 92.273438h-55.980469c-26.792969 0-48.589843 21.796874-48.589843 48.589843v153.203125h-141.628907c-3.125-13.90625-14.5625-25.949218-27.503906-39.570312-25.386719-26.730469-56.984375-59.992188-56.984375-128.167969 0-28.394531 7.257812-56.445313 20.992188-81.121094 2.015624-3.621093.714843-8.1875-2.902344-10.203125-3.621094-2.015625-8.1875-.714844-10.203125 2.90625-14.972657 26.902344-22.886719 57.480469-22.886719 88.417969 0 74.164063 35.320312 111.347656 61.109375 138.496094 11.003906 11.585937 20.128906 21.195312 23.152344 30.425781-13.324219 3.746094-23.125 16-23.125 30.507812 0 14.230469 9.429687 26.300782 22.367187 30.292969-3.582031 5.132813-5.695312 11.371094-5.695312 18.09375 0 17.472657 14.21875 31.691407 31.695312 31.691407h24.863282v4.699218c0 21.292969 17.324218 38.617188 38.617187 38.617188h18.191406c21.292969 0 38.617188-17.324219 38.617188-38.617188v-4.699218h11.613281c2.636719 24.320312 23.289062 43.316406 48.296875 43.316406h173.707031c26.792969 0 48.589844-21.796875 48.589844-48.589844v-259.699219c0-26.792969-21.796875-48.589843-48.589844-48.589843zm-387.273437 233.484374c0-9.207031 7.488281-16.695312 16.691406-16.695312h148.289063v33.386719h-148.289063c-9.203125 0-16.691406-7.488281-16.691406-16.691407zm16.671875 48.386719c0-9.207031 7.488281-16.695312 16.695312-16.695312h131.613282v33.386719h-131.613282c-9.207031 0-16.695312-7.488282-16.695312-16.691407zm121.984375 36.390625c0 13.023438-10.59375 23.617188-23.617188 23.617188h-18.1875c-13.023437 0-23.621093-10.59375-23.621093-23.617188v-4.699218h65.425781zm282.207031-9.96875c0 18.519532-15.066406 33.589844-33.589844 33.589844h-173.703125c-18.519531 0-33.589843-15.070312-33.589843-33.589844v-259.703125c0-18.523437 15.070312-33.589843 33.589843-33.589843h173.703125c18.519532 0 33.589844 15.066406 33.589844 33.589843zm0 0"/>
</svg>
