<svg height="512pt" viewBox="-51 0 511 512" width="512pt" xmlns="http://www.w3.org/2000/svg"><path d="m361.9375 7.5h-314.015625c-22.046875 0-39.921875 17.871094-39.921875 39.921875v417.15625c0 22.046875 17.871094 39.921875 39.921875 39.921875h314.015625c22.046875 0 39.921875-17.871094 39.921875-39.921875v-417.15625c0-22.050781-17.875-39.921875-39.921875-39.921875zm0 0" fill="#4677d4"/><path d="m53 52.5h303.855469v377h-303.855469zm0 0" fill="#00ccac"/><path d="m53 52.5h30v377h-30zm0 0" fill="#00ad8d"/><path d="m219.761719 467c0 8.191406-6.640625 14.832031-14.832031 14.832031-8.191407 0-14.832032-6.640625-14.832032-14.832031s6.640625-14.832031 14.832032-14.832031c8.191406 0 14.832031 6.640625 14.832031 14.832031zm0 0" fill="#7292df"/><path d="m241.910156 259.839844v-141.933594c0-20.421875-16.558594-36.980469-36.980468-36.980469-20.421876 0-36.980469 16.558594-36.980469 36.980469v141.933594c-23.925781 13.097656-40.148438 38.5-40.148438 67.695312 0 42.597656 34.53125 77.132813 77.128907 77.132813 42.597656 0 77.128906-34.53125 77.128906-77.132813 0-29.195312-16.226563-54.597656-40.148438-67.695312zm0 0" fill="#ebebeb"/><path d="m204.929688 379.667969c-28.746094 0-52.128907-23.386719-52.128907-52.132813 0-19.058594 10.402344-36.597656 27.152344-45.765625l12.996094-7.113281v-156.75c0-6.605469 5.375-11.980469 11.980469-11.980469 6.605468 0 11.976562 5.375 11.976562 11.980469v156.75l12.996094 7.113281c16.75 9.167969 27.15625 26.707031 27.15625 45.765625 0 28.746094-23.386719 52.132813-52.128906 52.132813zm0 0" fill="#ff889e"/><path d="m361.9375 0h-241.679688c-4.144531 0-7.5 3.359375-7.5 7.5s3.355469 7.5 7.5 7.5h241.679688c17.875 0 32.421875 14.542969 32.421875 32.421875v417.15625c0 17.875-14.546875 32.421875-32.421875 32.421875h-314.015625c-17.878906 0-32.421875-14.542969-32.421875-32.421875v-417.15625c0-17.878906 14.542969-32.421875 32.421875-32.421875h42.335937c4.140626 0 7.5-3.359375 7.5-7.5s-3.359374-7.5-7.5-7.5h-42.335937c-26.148437 0-47.421875 21.273438-47.421875 47.421875v417.15625c0 26.148437 21.273438 47.421875 47.421875 47.421875h314.015625c26.148438 0 47.417969-21.273438 47.417969-47.421875v-417.15625c.003906-26.148437-21.269531-47.421875-47.417969-47.421875zm0 0"/><path d="m45.5 52.5v377c0 4.140625 3.359375 7.5 7.5 7.5h232.257812c4.140626 0 7.5-3.359375 7.5-7.5s-3.359374-7.5-7.5-7.5h-224.757812v-362h288.855469v362h-34.097657c-4.144531 0-7.5 3.359375-7.5 7.5s3.355469 7.5 7.5 7.5h41.597657c4.144531 0 7.5-3.359375 7.5-7.5v-377c0-4.140625-3.355469-7.5-7.5-7.5h-303.855469c-4.140625 0-7.5 3.359375-7.5 7.5zm0 0"/><path d="m211.753906 30c0 3.769531-3.054687 6.824219-6.824218 6.824219-3.769532 0-6.824219-3.054688-6.824219-6.824219s3.054687-6.824219 6.824219-6.824219c3.769531 0 6.824218 3.054688 6.824218 6.824219zm0 0"/><path d="m182.597656 467c0 12.3125 10.015625 22.332031 22.332032 22.332031 12.3125 0 22.332031-10.019531 22.332031-22.332031s-10.019531-22.332031-22.332031-22.332031c-12.316407 0-22.332032 10.019531-22.332032 22.332031zm29.664063 0c0 4.042969-3.289063 7.332031-7.332031 7.332031-4.042969 0-7.332032-3.289062-7.332032-7.332031s3.289063-7.332031 7.332032-7.332031c4.042968 0 7.332031 3.289062 7.332031 7.332031zm0 0"/><path d="m204.929688 73.425781c-24.527344 0-44.480469 19.957031-44.480469 44.480469v137.625c-24.875 15.382812-40.148438 42.574219-40.148438 72.003906 0 46.667969 37.964844 84.628906 84.628907 84.628906 46.664062 0 84.628906-37.960937 84.628906-84.628906 0-29.429687-15.273438-56.621094-40.148438-72.003906v-137.625c0-24.527344-19.957031-44.480469-44.480468-44.480469zm8.378906 207.808594 12.996094 7.117187c14.34375 7.851563 23.253906 22.867188 23.253906 39.1875 0 24.609376-20.019532 44.628907-44.628906 44.628907-24.609376 0-44.628907-20.019531-44.628907-44.628907 0-16.320312 8.910157-31.335937 23.253907-39.1875l12.996093-7.117187c2.402344-1.3125 3.898438-3.835937 3.898438-6.578125v-156.75c0-2.46875 2.011719-4.476562 4.480469-4.476562s4.480468 2.007812 4.480468 4.476562v156.75c0 2.742188 1.492188 5.261719 3.898438 6.578125zm-27.859375-69.234375h-10v-11.75h10zm0-26.75h-10v-11.75h10zm-10 41.75h10v11.75h-10zm10-68.5h-10v-11.75h10zm89.109375 169.035156c0 38.394532-31.234375 69.628906-69.628906 69.628906-38.394532 0-69.628907-31.234374-69.628907-69.628906 0-25.457031 13.890625-48.875 36.25-61.117187 2.402344-1.316407 3.898438-3.835938 3.898438-6.578125v-6.089844h10v16.460938l-9.097657 4.980468c-19.152343 10.484375-31.050781 30.542969-31.050781 52.34375 0 32.882813 26.75 59.632813 59.628907 59.632813 32.878906 0 59.628906-26.75 59.628906-59.632813 0-21.800781-11.898438-41.859375-31.050782-52.34375l-9.097656-4.980468v-152.304688c0-10.742188-8.738281-19.476562-19.480468-19.476562-10.738282 0-19.480469 8.734374-19.480469 19.476562v13.84375h-10v-13.84375c0-16.253906 13.226562-29.480469 29.480469-29.480469 16.257812 0 29.480468 13.226563 29.480468 29.480469v141.933594c0 2.742187 1.496094 5.261718 3.898438 6.578125 22.359375 12.242187 36.25 35.660156 36.25 61.117187zm0 0"/></svg>