<svg height="512pt" viewBox="-29 0 512 512" width="512pt" xmlns="http://www.w3.org/2000/svg"><path d="m446.921875 54.5v99.03125l-219.710937 40.46875-219.710938-40.46875v-99.03125c0-25.960938 21.039062-47 46.988281-47h345.441407c25.949218 0 46.992187 21.039062 46.992187 47zm0 0" fill="#7a8fa4"/><path d="m446.921875 447.5v10c0 25.960938-21.042969 47-46.992187 47h-345.441407c-25.949219 0-46.988281-21.039062-46.988281-47v-10l219.710938-37.5zm0 0" fill="#7a8fa4"/><path d="m383.03125 45.421875h-160.484375c-9.332031 0-16.898437 7.566406-16.898437 16.898437v36.390626c0 9.332031 7.566406 16.898437 16.898437 16.898437h160.484375c9.332031 0 16.898438-7.566406 16.898438-16.898437v-36.390626c0-9.332031-7.566407-16.898437-16.898438-16.898437zm0 0" fill="#a7e0f5"/><path d="m7.5 153.53125h439.421875v293.96875h-439.421875zm0 0" fill="#a6b6c4"/><path d="m92.34375 80.347656c0 12.105469-9.816406 21.921875-21.925781 21.921875s-21.925781-9.816406-21.925781-21.921875c0-12.109375 9.816406-21.925781 21.925781-21.925781s21.925781 9.816406 21.925781 21.925781zm0 0" fill="#76e6d5"/><path d="m165.089844 80.347656c0 12.105469-9.816406 21.921875-21.925782 21.921875-12.109374 0-21.925781-9.816406-21.925781-21.921875 0-12.109375 9.816407-21.925781 21.925781-21.925781 12.109376 0 21.925782 9.816406 21.925782 21.925781zm0 0" fill="#ff889e"/><path d="m344.058594 300.515625c0 64.53125-52.316406 116.847656-116.847656 116.847656-64.535157 0-116.847657-52.316406-116.847657-116.847656 0-64.535156 52.3125-116.847656 116.847657-116.847656 64.53125 0 116.847656 52.3125 116.847656 116.847656zm0 0" fill="#7a8fa4"/><path d="m309.539062 301.871094c.019532-.449219.019532-.910156.019532-1.359375 0-45.472657-36.867188-82.339844-82.347656-82.339844-45.480469 0-82.351563 36.867187-82.351563 82.339844 0 .449219 0 .910156.019531 1.359375l29.855469 29.855468h100.925781zm0 0" fill="#a7e0f5"/><path d="m309.539062 301.871094c-.71875 44.847656-37.300781 80.988281-82.328124 80.988281-45.03125 0-81.609376-36.140625-82.332032-80.988281 6.171875-.449219 12.269532-2.109375 17.929688-4.972656 6.75-3.410157 14.113281-5.109376 21.472656-5.109376s14.707031 1.699219 21.46875 5.109376c6.738281 3.410156 14.109375 5.113281 21.460938 5.113281 7.347656 0 14.71875-1.703125 21.460937-5.113281 6.757813-3.410157 14.109375-5.109376 21.46875-5.109376s14.71875 1.699219 21.46875 5.109376c5.660156 2.863281 11.761719 4.523437 17.929687 4.972656zm0 0" fill="#59c2e7"/><path d="m144.878906 301.871094 28.628906 28.625c-3.480468-8.894532-5.464843-18.539063-5.628906-28.625-.019531-.449219-.019531-.910156-.019531-1.359375 0-41.566407 30.816406-75.925781 70.851563-81.523438-1.515626-.210937-3.046876-.375-4.582032-.507812-2.300781-.195313-4.609375-.308594-6.917968-.308594-25.582032 0-48.441407 11.664063-63.546876 29.964844-12.085937 14.640625-19.632812 34.601562-18.785156 53.734375zm0 0" fill="#59c2e7"/><path d="m227.210938 382.859375c3.789062 0 7.628906-.238281 11.378906-.800781.039062-.003906.082031-.007813.121094-.011719-39.601563-5.539063-70.171876-39.21875-70.832032-80.179687-.019531-.449219-.019531-.90625-.019531-1.359376 0-1.980468.09375-3.9375.230469-5.882812-1.792969.648438-3.558594 1.402344-5.28125 2.273438-5.660156 2.859374-11.757813 4.519531-17.929688 4.96875.179688 11.214843 2.601563 21.882812 6.835938 31.578124 3.707031 8.484376 8.800781 16.222657 14.992187 22.925782 15.042969 16.289062 36.582031 26.488281 60.503907 26.488281zm0 0" fill="#00a2d7"/><path d="m250.777344 90.210938c4.144531 0 7.5-3.359376 7.5-7.5v-9.414063c0-4.144531-3.355469-7.5-7.5-7.5-4.140625 0-7.5 3.355469-7.5 7.5v9.414063c0 4.140624 3.359375 7.5 7.5 7.5zm0 0"/><path d="m354.800781 90.210938c4.140625 0 7.5-3.359376 7.5-7.5v-9.414063c0-4.144531-3.359375-7.5-7.5-7.5s-7.5 3.355469-7.5 7.5v9.414063c0 4.140624 3.359375 7.5 7.5 7.5zm0 0"/><path d="m302.789062 95.234375c7.167969 0 13.90625-3.003906 18.484376-8.246094 2.726562-3.117187 2.410156-7.855469-.710938-10.582031-3.117188-2.726562-7.855469-2.410156-10.582031.710938-1.730469 1.980468-4.351563 3.117187-7.191407 3.117187-2.839843 0-5.457031-1.136719-7.1875-3.117187-2.730468-3.121094-7.464843-3.4375-10.585937-.710938-3.117187 2.726562-3.4375 7.464844-.710937 10.582031 4.582031 5.242188 11.316406 8.246094 18.484374 8.246094zm0 0"/><path d="m383.03125 123.109375c13.453125 0 24.398438-10.945313 24.398438-24.398437v-36.390626c0-13.453124-10.945313-24.398437-24.398438-24.398437h-160.484375c-13.453125 0-24.398437 10.945313-24.398437 24.398437v36.390626c0 13.453124 10.945312 24.398437 24.398437 24.398437zm-169.882812-24.398437v-36.390626c0-5.179687 4.214843-9.398437 9.398437-9.398437h160.484375c5.183594 0 9.398438 4.21875 9.398438 9.398437v36.390626c0 5.179687-4.214844 9.398437-9.398438 9.398437h-160.484375c-5.179687 0-9.398437-4.21875-9.398437-9.398437zm0 0"/><path d="m70.417969 50.921875c-16.226563 0-29.425781 13.199219-29.425781 29.425781 0 16.222656 13.203124 29.425782 29.425781 29.425782 16.222656 0 29.425781-13.203126 29.425781-29.425782 0-16.226562-13.203125-29.425781-29.425781-29.425781zm0 43.847656c-7.953125 0-14.425781-6.46875-14.425781-14.421875 0-7.957031 6.472656-14.425781 14.425781-14.425781s14.425781 6.46875 14.425781 14.425781c0 7.953125-6.472656 14.421875-14.425781 14.421875zm0 0"/><path d="m172.589844 80.347656c0-16.226562-13.199219-29.425781-29.425782-29.425781-16.222656 0-29.425781 13.199219-29.425781 29.425781 0 16.222656 13.203125 29.425782 29.425781 29.425782 16.226563-.003907 29.425782-13.203126 29.425782-29.425782zm-43.851563 0c0-7.953125 6.472657-14.425781 14.425781-14.425781 7.953126 0 14.425782 6.472656 14.425782 14.425781s-6.472656 14.425782-14.425782 14.425782c-7.953124 0-14.425781-6.472657-14.425781-14.425782zm0 0"/><path d="m227.210938 424.863281c68.566406 0 124.347656-55.78125 124.347656-124.347656s-55.78125-124.347656-124.347656-124.347656c-68.566407 0-124.347657 55.78125-124.347657 124.347656s55.78125 124.347656 124.347657 124.347656zm0-233.695312c60.292968 0 109.347656 49.054687 109.347656 109.347656s-49.054688 109.347656-109.347656 109.347656c-60.296876 0-109.347657-49.054687-109.347657-109.347656s49.050781-109.347656 109.347657-109.347656zm0 0"/><path d="m106.660156 7.5c0-4.140625-3.359375-7.5-7.5-7.5h-44.671875c-30.042969 0-54.488281 24.449219-54.488281 54.5v403c0 30.050781 24.445312 54.5 54.488281 54.5h345.441407c30.046874 0 54.492187-24.449219 54.492187-54.5v-403c0-30.050781-24.445313-54.5-54.492187-54.5h-270.769532c-4.140625 0-7.5 3.359375-7.5 7.5s3.359375 7.5 7.5 7.5h270.769532c21.773437 0 39.492187 17.71875 39.492187 39.5v91.53125h-424.421875v-91.53125c0-21.78125 17.714844-39.5 39.488281-39.5h44.671875c4.140625 0 7.5-3.359375 7.5-7.5zm332.761719 153.53125v278.96875h-69.261719c-4.140625 0-7.5 3.359375-7.5 7.5s3.359375 7.5 7.5 7.5h69.261719v2.5c0 21.78125-17.71875 39.5-39.492187 39.5h-345.441407c-21.773437 0-39.488281-17.71875-39.488281-39.5v-2.5h325.160156c4.140625 0 7.5-3.359375 7.5-7.5s-3.359375-7.5-7.5-7.5h-325.160156v-278.96875zm0 0"/><path d="m137.378906 302.246094c.457032 23.339844 10.136719 45.878906 26.785156 62.28125 16.914063 16.65625 39.304688 25.832031 63.046876 25.832031 23.742187 0 46.132812-9.175781 63.042968-25.832031 16.964844-16.710938 26.804688-40.195313 26.804688-64.015625 0-49.539063-40.304688-89.839844-89.847656-89.839844-49.542969 0-89.851563 40.300781-89.851563 89.839844 0 .578125.007813 1.15625.019531 1.734375zm142.347656 51.59375c-14.085937 13.878906-32.738281 21.519531-52.515624 21.519531-19.78125 0-38.429688-7.640625-52.519532-21.519531-12.5-12.3125-20.144531-28.28125-21.921875-45.523438.097657-.019531.191407-.046875.289063-.070312 6.890625-1.5 13.015625-5.277344 19.789062-7.285156 10.191406-3.023438 20.785156-1.648438 30.261719 2.980468 7.476563 3.652344 15.785156 5.570313 24.101563 5.570313 8.5625 0 17.195312-2.050781 24.839843-5.914063 11.21875-5.675781 24.957031-5.671875 36.179688-.003906 4.242187 2.144531 8.773437 3.734375 13.421875 4.722656-1.777344 17.242188-9.425782 33.210938-21.925782 45.523438zm-52.515624-128.167969c38.683593 0 70.609374 29.496094 74.460937 67.175781-.234375-.066406-.46875-.136718-.703125-.210937-5.65625-1.792969-10.722656-4.871094-16.496094-6.421875-13.042968-3.503906-27.121094-2.09375-39.1875 3.996094-5.585937 2.816406-11.820312 4.300781-18.074218 4.300781-9.421876 0-16.597657-4.355469-25.222657-7.273438-12.90625-4.363281-27.136719-3.8125-39.644531 1.601563-3.136719 1.359375-6.257812 3.015625-9.59375 4.007812 3.847656-37.679687 35.773438-67.175781 74.460938-67.175781zm0 0"/></svg>